<svg xmlns="http://www.w3.org/2000/svg"
                                                xmlns:xlink="http://www.w3.org/1999/xlink" width="723.919"
                                                height="317.113" viewBox="0 0 723.919 317.113" className="slidebg">
                                                <defs>
                                                    <linearGradient id="linear-gradient3" x1="0.5" x2="0.5" y2="1"
                                                        gradientUnits="objectBoundingBox">
                                                        <stop offset="0" stop-color="#09b2fd" />
                                                        <stop offset="1" stop-color="#6b00e5" />
                                                    </linearGradient>
                                                </defs>
                                                <path id="intro2bg"
                                                    d="M-416.2-698.692c-47.489-59.511-79.95-46.286-131.045-19.236s-100.988-21.039-51.095-79.349,11.421-85.36,57.107-105.8,85.971,35.129,150.854,48c29.957,5.941,63.16-6.095,94.437-18.131,36.464-14.032,70.31-28.064,93.342-13.608,42.785,26.854,14.087,65.047,48.7,111.97s41.979,97.46-34.943,125.152S-251.15-592-306.536-590.464q-1.242.035-2.452.034C-362.132-590.43-369.424-640.07-416.2-698.692ZM.347-689.342c-13.13-10.42-27.087-3.993-42.223,2.435-13.45,5.711-27.83,11.423-43.386,5.312-33.062-12.989-27.862-62.436-36.211-78.325s-9.88-15.329-23.616-36.606c-11.042-16.7-24.009-69.273,13.842-86.27,20.4-8.194,37.108-3,55.432-2.29,7.9.308,15.583-4.265,23.97-8.838,11.054-6.026,23.341-12.054,39.006-6.906,27.552,9.053,20.467,34.637,35.031,46.839,6.273,5.255,15.467,4.377,25.13,3.5,12.768-1.161,26.353-2.323,35.091,10.672,15.35,22.829-7.479,41.328,10.627,59.433S107.6-717.413,89.1-696.552c-10.729,12.1-30.522,19.208-50.1,19.207C24.828-677.346,10.763-681.076.347-689.342Z"
                                                    transform="translate(618.979 907.542)"
                                                    fill="url(#linear-gradient3)" />
                                            </svg>
