 <svg xmlns="http://www.w3.org/2000/svg"
                                                xmlns:xlink="http://www.w3.org/1999/xlink" width="493.05"
                                                height="225.756" viewBox="0 0 493.05 225.756" className="slidebg">
                                                <defs>
                                                    <linearGradient id="linear-gradient1" x1="0.5" x2="0.5" y2="1"
                                                        gradientUnits="objectBoundingBox">
                                                        <stop offset="0" stop-color="#09b2fd" />
                                                        <stop offset="1" stop-color="#6b00e5" />
                                                    </linearGradient>
                                                </defs>
                                                <path id="intro3bg"
                                                    d="M-318.148-1610.566c-13.129-10.42-27.086-3.992-42.222,2.435-13.451,5.712-27.831,11.424-43.387,5.313-33.062-12.989-27.862-62.436-36.211-78.326s-9.881-15.328-23.617-36.6c-11.042-16.7-24.009-69.274,13.842-86.27,20.4-8.194,37.108-3,55.432-2.29,7.9.308,15.582-4.265,23.969-8.838,11.054-6.026,23.341-12.054,39.007-6.906,27.552,9.052,20.468,34.636,35.031,46.838,6.273,5.256,15.468,4.377,25.131,3.5,12.767-1.162,26.352-2.324,35.09,10.671,15.35,22.829-7.479,41.328,10.627,59.433s14.563,62.977-3.936,83.838c-10.729,12.1-30.522,19.208-50.1,19.207C-293.667-1598.569-307.732-1602.3-318.148-1610.566Zm166.311-22.718c-22.947-11.415-17.988-24.009-32.945-47.625s-36.132-34.244-36.132-53.176,25.433-19.475,32.747-32.747,3.07-42.981,30.189-43.493c12.452-.235,21.883,4.385,30.623,9,10.293,5.441,19.626,10.883,31.8,8.393,22.514-4.6,24.128-22.986,50.145-30.189s62.936,18.617,63.448,56.285-20.192,63.488-51.68,62.425-56.285-16.649-55.262,26.1c.795,33.2-23.766,48.873-45.526,48.874A39.243,39.243,0,0,1-151.837-1633.284Z"
                                                    transform="translate(475 1824.325)" fill="url(#linear-gradient1)" />
                                            </svg>